<?xml version="1.0" encoding="UTF-8"?>
<svg width="56px" height="60px" viewBox="0 0 56 60" version="1.1" xmlns="http://www.w3.org/2000/svg" xmlns:xlink="http://www.w3.org/1999/xlink">
    <!-- Generator: Sketch 42 (36781) - http://www.bohemiancoding.com/sketch -->
    <title>Group 2 Copy 3</title>
    <desc>Created with Sketch.</desc>
    <defs></defs>
    <g id="Page-2" stroke="none" stroke-width="1" fill="none" fill-rule="evenodd">
        <g id="Desktop-HD-Copy-28" transform="translate(-121.000000, -102.000000)">
            <g id="Group-2-Copy-3" transform="translate(120.000000, 102.000000)">
                <path d="M48.1986596,7.03622174 C38.7849724,-2.34525652 23.5233198,-2.34525652 14.1101998,7.03622174 C4.6970797,16.4171348 4.6970797,31.6271348 14.1101998,41.0080478 L20.8992078,47.7738273 C22.4653006,49.3345617 24.9987458,49.3402771 26.5680682,47.7763762 L54.9906983,19.4519368 C56.5554306,17.8926101 56.5556674,15.3646359 54.9880677,13.8023999 L48.1986596,7.03622174 Z" id="Page-1-Copy-2" fill="#FFBB00"></path>
                <path d="M9.62523713,52.5641304 C19.0383572,61.9456087 34.3005769,61.9456087 43.713697,52.5641304 C53.1268171,43.1826522 53.1268171,27.9732174 43.713697,18.5917391 L36.9242889,11.8259597 C35.3581038,10.2652253 32.8246048,10.2595308 31.2553085,11.8234577 L2.83315134,40.1483684 C1.26844506,41.707721 1.26822941,44.2357162 2.83582903,45.7979523 L9.62523713,52.5641304 Z" id="Fill-1-Copy" fill="#00A3A6" style="mix-blend-mode: multiply;"></path>
                <path d="M48.5828367,25.0874111 L26.4799084,47.1139812 C24.910586,48.6778821 22.3771408,48.6721667 20.811048,47.1114323 L14.02204,40.3456528 C11.8839775,38.2149058 10.2315469,35.7834305 9.0647482,33.1878398 L31.1671487,11.1610627 C32.736445,9.59713578 35.269944,9.60283025 36.8361291,11.1635647 L43.6255372,17.9293441 C45.7636044,20.0602243 47.4160376,22.4917756 48.5828367,25.0874111 Z" id="Combined-Shape" fill="#111625"></path>
            </g>
        </g>
    </g>
</svg>